<?xml version="1.0" encoding="UTF-8"?>
<svg id="Layer_1" data-name="Layer 1" xmlns="http://www.w3.org/2000/svg" viewBox="0 0 30 30">
  <defs>
    <style>
      .cls-1 {
        fill: none;
        stroke: #231f20;
        stroke-miterlimit: 10;
      }
    </style>
  </defs>
  <g>
    <path class="cls-1" d="m7.33,12.05c-.28.59-.43,1.25-.43,1.95,0,1.77.73,3.91,1.49,6.17.99,2.91,1.51,6.2,1.51,9.83"/>
    <path class="cls-1" d="m18.42,8.93c-1.01-.28-2.16-.43-3.42-.43s-2.41.15-3.42.43"/>
    <path class="cls-1" d="m20.1,30c0-3.63.5-6.85,1.51-9.83.77-2.26,1.49-4.4,1.49-6.17,0-.77-.18-1.49-.52-2.13"/>
    <path class="cls-1" d="m24.48,6.46c2.29,1.85,3.62,4.46,3.62,7.54,0,2.6-.75,5.15-1.76,7.78-1.38,3.57-1.24,5.42-1.24,8.22"/>
    <path class="cls-1" d="m10.08,4.16c1.49-.43,3.14-.66,4.92-.66s3.43.23,4.92.66"/>
    <path class="cls-1" d="m4.9,30c0-2.8-.34-5.55-1.24-8.22-.9-2.67-1.76-5.18-1.76-7.78,0-3.08,1.33-5.69,3.62-7.54"/>
  </g>
  <g>
    <path class="cls-1" d="m26.58,21.07c1.01.28,2.16.43,3.42.43"/>
    <path class="cls-1" d="m25.1,0c0,3.63-.72,6.92-1.71,9.83-.77,2.26-1.49,4.4-1.49,6.17,0,.71.15,1.36.43,1.96"/>
    <path class="cls-1" d="m20.56,23.57c-2.31-1.85-3.66-4.48-3.66-7.57,0-2.6.85-5.11,1.76-7.78.91-2.67,1.44-5.42,1.44-8.22"/>
    <path class="cls-1" d="m30,26.5c-1.78,0-3.43-.23-4.92-.66"/>
  </g>
  <g>
    <path class="cls-1" d="m4.43,25.98c-1.36.34-2.85.52-4.43.52"/>
    <path class="cls-1" d="m9.9,0c0,2.8.54,5.56,1.44,8.22.9,2.67,1.76,5.18,1.76,7.78,0,3.08-1.33,5.69-3.62,7.54"/>
    <path class="cls-1" d="m7.67,17.95c.28-.59.43-1.25.43-1.95,0-1.77-.73-3.91-1.49-6.17-.99-2.91-1.71-6.2-1.71-9.83"/>
    <path class="cls-1" d="m0,21.5c1.21,0,2.32-.14,3.31-.4"/>
  </g>
</svg>