<?xml version="1.0" encoding="UTF-8"?>
<svg xmlns="http://www.w3.org/2000/svg" viewBox="0 0 30 30">
  <defs>
    <style>
      .cls-1 {
        fill: #c5b0ff;
      }

      .cls-2 {
        fill: none;
        stroke: #000000;
        stroke-miterlimit: 10;
      }
    </style>
  </defs>
  <g id="above">
    <polygon class="cls-1" points="3.42 0 9.95 0 9.48 5.91 7.6 13.18 8.24 18.19 12.51 21.05 18.73 21.05 21.88 18.45 22.99 13.78 21.19 8.49 20.21 2.41 20.1 0 26.91 0 27.31 6.25 29.21 14.37 28.53 20.52 25.6 25.26 19.71 28.35 11.29 28.13 4.38 24.99 .96 19.88 .82 13.28 2.8 6.43 3.42 0"/>
  </g>
  <g id="outline">
    <g>
      <path class="cls-2" d="m9.95,0c0,3.62-.46,6.95-1.51,9.83-3.85,10.65,5.35,11.67,6.61,11.67s11.04-.35,6.61-11.67c-1.15-2.92-1.51-6.16-1.51-9.83"/>
      <path class="cls-2" d="m26.91,0c0,2.8,0,4.89.91,8.72.66,2.74,1.49,4.36,1.44,6.96-.24,13.49-12.49,12.89-14.26,12.89S.47,27.79.74,16.28c.06-2.6.55-5.42,1.45-8.08C3.09,5.53,3.42,2.81,3.42,0"/>
    </g>
  </g>
</svg>