<?xml version="1.0" encoding="UTF-8"?>
<svg xmlns="http://www.w3.org/2000/svg" viewBox="0 0 30 30">
  <defs>
    <style>
      .cls-1 {
        fill: #c5b0ff;
      }

      .cls-2 {
        fill: none;
        stroke: #231f20;
        stroke-miterlimit: 10;
      }
    </style>
  </defs>
  <g id="above">
    <polygon class="cls-1" points="3.42 0 9.95 0 9.48 5.91 7.6 13.18 8.91 17.65 12.51 21.05 18.73 21.05 21.88 18.45 22.54 13.94 21.19 8.49 20.21 2.41 20.1 0 26.91 0 27.31 6.25 29.21 14.37 28.66 21.55 25.63 25.75 19.71 28.35 11.29 28.13 4.38 24.99 .96 19.88 .82 13.28 2.8 6.43 3.42 0"/>
  </g>
  <g id="outline">
    <g>
      <path class="cls-2" d="m9.95,0c0,.52-.85,6.25-1.51,9.83-2.04,11.14,5.35,11.67,6.61,11.67s9.19,1.45,6.61-11.67C20.84,5.65,20.15,1.48,20.15,0"/>
      <path class="cls-2" d="m26.91,0c0,1.15,1.26,8.32,1.38,8.83.24,1.06.79,4.81.98,6.84,1.19,13.44-12.49,12.89-14.26,12.89S.47,27.79.74,16.28c.06-2.6.79-5.35,1.45-8.08C2.43,7.17,3.37,1.64,3.42,0"/>
    </g>
  </g>
</svg>