<?xml version="1.0" encoding="UTF-8"?>
<svg id="Layer_1" data-name="Layer 1" xmlns="http://www.w3.org/2000/svg" viewBox="0 0 30 30">
  <defs>
    <style>
      .cls-1 {
        fill: none;
        stroke: #231f20;
        stroke-miterlimit: 10;
      }
    </style>
  </defs>
  <g>
    <path class="cls-1" d="m8.88,23.74c.58,2.01,1.02,3.97,1.02,6.26"/>
    <path class="cls-1" d="m22.33,17.96c.44-1.44.77-2.78.77-3.96,0-3.29-3.25-5.5-8.1-5.5s-8.1,2.21-8.1,5.5c0,1.18.32,2.52.76,3.95"/>
    <path class="cls-1" d="m20.1,30c0-2.3.23-4.2.83-6.27"/>
    <path class="cls-1" d="m25.68,26.04c-.35,1.37-.58,2.56-.58,3.96"/>
    <path class="cls-1" d="m3.42,21.07c-.81-2.41-1.52-4.71-1.52-7.07C1.9,7.82,7.29,3.5,15,3.5s13.1,4.32,13.1,10.5c0,2.37-.71,4.67-1.52,7.07"/>
    <path class="cls-1" d="m4.9,30c0-1.4-.23-2.59-.58-3.96"/>
  </g>
  <g>
    <path class="cls-1" d="m19.92,4.16c.35-1.37.18-2.76.18-4.16"/>
    <path class="cls-1" d="m30,26.5c-7.71,0-13.1-4.32-13.1-10.5,0-2.37.71-4.67,1.52-7.07"/>
    <path class="cls-1" d="m22.66,12.05c-.44,1.43-.76,2.77-.76,3.95,0,3.29,3.25,5.5,8.1,5.5"/>
    <path class="cls-1" d="m25.1,0c0,2.31-.05,4.48-.64,6.51"/>
  </g>
  <g>
    <path class="cls-1" d="m5.54,6.51c-.58-2.03-.64-4.2-.64-6.51"/>
    <path class="cls-1" d="m0,21.5c4.84,0,8.1-2.21,8.1-5.5,0-1.18-.32-2.52-.76-3.95"/>
    <path class="cls-1" d="m11.58,8.93c.81,2.41,1.52,4.71,1.52,7.07,0,6.18-5.39,10.5-13.1,10.5"/>
    <path class="cls-1" d="m9.9,0c0,1.4-.17,2.79.18,4.16"/>
  </g>
</svg>