<?xml version="1.0" encoding="UTF-8"?>
<svg xmlns="http://www.w3.org/2000/svg" viewBox="0 0 30 30">
  <defs>
    <style>
      .cls-1 {
        fill: #ffaec5;
      }

      .cls-2 {
        fill: #c5b0ff;
      }

      .cls-3 {
        fill: none;
        stroke: #231f20;
        stroke-miterlimit: 10;
      }
    </style>
  </defs>
  <g id="above">
    <polygon class="cls-2" points="20.1 .03 26.54 .06 26.2 5.09 19.92 2.11 20.1 .03"/>
    <polygon class="cls-2" points="18.04 8.96 21.18 10.28 22.92 13.6 23.23 17.24 26.2 20.67 30 21.53 30 27.6 24.38 26.53 18.73 22 16.9 16.03 18.04 8.96"/>
    <polygon class="cls-2" points="3.26 .03 9.9 .03 9.99 1.6 3.69 5.09 3.26 .03"/>
    <polygon class="cls-2" points="6.55 13.62 7.94 10.46 11.58 8.96 13.1 16.03 12.1 20.54 8.88 24.61 4.84 26.82 0 27.6 0 21.49 4.07 20.56 7.17 17.36 6.55 13.62"/>
  </g>
  <g id="below">
    <polyline class="cls-1" points="3.48 29.66 2.79 27.59 9.48 24.43 9.9 30.02 3.69 30.66"/>
    <polyline class="cls-1" points="20.74 24.43 19.92 31.09 26.86 31.09 26.86 26.94"/>
    <polygon class="cls-1" points="22.89 15.64 25.28 20.08 27.71 20.99 29.21 13.18 27.71 7.58 23.45 3.5 17.46 1.59 11.29 1.59 6.35 3.55 1.98 8.24 .68 15 1.53 20.99 5.07 19.99 7.4 15.33 7.4 11.95 11.29 9.04 15.24 8.52 19.61 8.96 22.83 12.12 22.66 15 22.89 15.64"/>
  </g>
  <g id="outline">
    <g>
      <path class="cls-3" d="m9.11,24.61c.37,2.27.66,2.98.79,5.41"/>
      <path class="cls-3" d="m22.89,15.64s.21-.44.21-1.62c0-3.29-3.25-5.5-8.1-5.5s-8.1,2.21-8.1,5.5c0,1.18.14,1.43.22,1.7"/>
      <path class="cls-3" d="m20.1,30.02c0-2.3.05-3.51.64-5.59"/>
      <path class="cls-3" d="m26.86,27.71v2.29"/>
      <path class="cls-3" d="m1.53,20.99c-.66-2.76-.84-5.16-.84-7.81C.68,6.27,6.55,1.44,14.95,1.44s14.26,4.83,14.26,11.75c0,1.31-.62,5.12-1.51,7.81"/>
      <path class="cls-3" d="m3.37,30.02c0-1.4-.58-2.43-.58-2.43"/>
    </g>
    <g>
      <path class="cls-3" d="m3.69,5.96c-.22-2.36-.43-3.62-.43-5.93"/>
      <path class="cls-3" d="m0,21.49c4.84,0,7.17-3.27,7.17-6.56,0-1.18-.16-1.7-.16-1.7"/>
      <path class="cls-3" d="m11.58,8.96c.81,2.41,1.52,4.71,1.52,7.07C13.1,22.21,7.71,27.6,0,27.6"/>
      <path class="cls-3" d="m9.9.03c0,1.4.18,2.08.18,2.08"/>
      <g>
        <path class="cls-3" d="m26.31,5.96c.17-2.08.24-3.59.24-5.9"/>
        <path class="cls-3" d="m30,21.53c-4.84,0-7.17-3.31-7.17-6.6,0-1.18.16-1.7.16-1.7"/>
        <path class="cls-3" d="m18.42,8.96c-.81,2.41-1.52,4.71-1.52,7.07,0,6.18,5.39,11.57,13.1,11.57"/>
        <path class="cls-3" d="m20.1.03c0,1.4-.18,2.08-.18,2.08"/>
      </g>
    </g>
  </g>
</svg>