<?xml version="1.0" encoding="UTF-8"?>
<svg xmlns="http://www.w3.org/2000/svg" xmlns:xlink="http://www.w3.org/1999/xlink" viewBox="0 0 30 30">
  <defs>
    <style>
      .cls-1 {
        fill: url(#linear-gradient);
      }

      .cls-2 {
        fill: #ffaec5;
      }

      .cls-3 {
        fill: #c5b0ff;
      }

      .cls-4 {
        fill: url(#linear-gradient-8);
      }

      .cls-5 {
        fill: url(#linear-gradient-3);
      }

      .cls-6 {
        fill: url(#linear-gradient-4);
      }

      .cls-7 {
        fill: url(#linear-gradient-2);
      }

      .cls-8 {
        fill: url(#linear-gradient-6);
      }

      .cls-9 {
        fill: url(#linear-gradient-7);
      }

      .cls-10 {
        fill: url(#linear-gradient-5);
      }

      .cls-11 {
        fill: none;
        stroke: #231f20;
        stroke-miterlimit: 10;
      }
    </style>
    <linearGradient id="linear-gradient" x1="9.66" y1="19.76" x2="8.81" y2="7.75" gradientUnits="userSpaceOnUse">
      <stop offset=".19" stop-color="#000" stop-opacity="0"/>
      <stop offset="1" stop-color="#000"/>
    </linearGradient>
    <linearGradient id="linear-gradient-2" x1="42.08" y1="19.52" x2="41.23" y2="7.5" gradientTransform="translate(62.33) rotate(-180) scale(1 -1)" xlink:href="#linear-gradient"/>
    <linearGradient id="linear-gradient-3" x1="27.22" y1="1.08" x2="28.51" y2="5.96" gradientTransform="translate(50.91) rotate(-180) scale(1 -1)" gradientUnits="userSpaceOnUse">
      <stop offset="0" stop-color="#000" stop-opacity="0"/>
      <stop offset="1" stop-color="#000"/>
    </linearGradient>
    <linearGradient id="linear-gradient-4" x1="6.42" y1="1.05" x2="7.72" y2="5.93" gradientTransform="matrix(1,0,0,1,0,0)" xlink:href="#linear-gradient-3"/>
    <linearGradient id="linear-gradient-5" x1="36.25" y1="41.68" x2="35.39" y2="29.66" gradientTransform="translate(-8.64 54.2) rotate(-2.42) scale(1 -1)" xlink:href="#linear-gradient"/>
    <linearGradient id="linear-gradient-6" x1="59.18" y1="41.38" x2="58.26" y2="28.59" gradientTransform="translate(61.18 54.2) rotate(-177.58)" xlink:href="#linear-gradient"/>
    <linearGradient id="linear-gradient-7" x1="4.24" y1="48.78" x2="5.53" y2="53.67" gradientTransform="translate(23.56 77.41) rotate(-5.12) scale(1 -1)" xlink:href="#linear-gradient-3"/>
    <linearGradient id="linear-gradient-8" x1="30.37" y1="46.42" x2="31.56" y2="50.92" gradientTransform="translate(32.54 77.41) rotate(-174.88)" gradientUnits="userSpaceOnUse">
      <stop offset="0" stop-color="#000" stop-opacity="0"/>
      <stop offset="1" stop-color="#000"/>
    </linearGradient>
  </defs>
  <g id="above">
    <polygon class="cls-3" points="20.08 -.03 26.52 0 26.18 5.03 19.9 2.05 20.08 -.03"/>
    <polygon class="cls-3" points="18.04 8.96 21.18 10.28 22.92 13.6 23.23 17.24 26.2 20.67 30 21.53 30 27.6 24.38 26.53 18.73 22 16.9 16.03 18.04 8.96"/>
    <polygon class="cls-3" points="3.26 0 9.9 0 9.99 1.6 3.69 5.09 3.26 0"/>
    <polygon class="cls-3" points="6.55 13.62 7.94 10.46 11.58 8.96 13.1 16.03 12.1 20.54 8.88 24.61 4.84 26.82 0 27.6 0 21.49 4.07 20.56 7.17 17.36 6.55 13.62"/>
  </g>
  <g id="below">
    <polyline class="cls-2" points="3.05 30 2.47 27.98 9.16 24.82 9.63 30 3.14 30"/>
    <polyline class="cls-2" points="20.74 24.43 20.1 30.02 26.86 30 26.86 26.94"/>
    <polygon class="cls-2" points="22.89 15.64 25.28 20.08 27.71 20.99 29.21 13.18 27.71 7.58 23.45 3.5 17.46 1.59 11.29 1.59 6.35 3.55 1.98 8.24 .68 15 1.53 20.99 5.07 19.99 7.4 15.33 7.4 11.95 11.29 9.04 15.24 8.52 19.61 8.96 22.83 12.12 22.66 15 22.89 15.64"/>
  </g>
  <g id="gradients">
    <polygon class="cls-1" points="6.9 14.02 8.24 11.21 11.58 8.96 13.03 15.72 11.87 20.99 5.94 18.8 7.2 15.72 6.9 14.02"/>
    <polygon class="cls-7" points="23.01 13.78 21.67 10.97 18.33 8.72 16.87 15.48 18.04 20.75 23.97 18.55 22.7 15.48 23.01 13.78"/>
    <polygon class="cls-5" points="26.46 5.38 23.25 3.02 20.07 1.88 20.13 -.26 26.89 -.2 26.46 5.38"/>
    <polygon class="cls-6" points="3.65 5.35 6.85 2.98 10.03 1.85 9.98 -.29 3.22 -.23 3.65 5.35"/>
    <polygon class="cls-10" points="23.29 16.88 24.75 19.63 28.18 21.74 29.35 14.92 27.96 9.71 22.13 12.15 23.53 15.17 23.29 16.88"/>
    <polygon class="cls-8" points="6.87 16.88 5.42 19.63 1.99 21.74 .82 14.92 1.19 8.96 7.01 13.23 6.64 15.17 6.87 16.88"/>
    <polygon class="cls-9" points="20.42 24.43 23.83 26.5 27.1 27.35 26.86 30 20.49 30.03 20.42 24.43"/>
    <polygon class="cls-4" points="9.39 24.73 5.98 26.81 2.71 27.65 3.08 29.82 9.63 29.84 9.39 24.73"/>
  </g>
  <g id="outline">
    <g>
      <path class="cls-11" d="m9.11,24.61c.37,2.27.79,4.62.79,5.39"/>
      <path class="cls-11" d="m22.89,15.64s.21-.44.21-1.62c0-3.29-3.25-5.5-8.1-5.5s-8.1,2.21-8.1,5.5c0,1.18.14,1.43.22,1.7"/>
      <path class="cls-11" d="m20.1,30.02c0-2.3.05-3.51.64-5.59"/>
      <path class="cls-11" d="m26.86,27.71v2.29"/>
      <path class="cls-11" d="m1.53,20.99c-.66-2.76-.84-5.16-.84-7.81C.68,6.27,6.55,1.44,14.95,1.44s14.26,4.83,14.26,11.75c0,1.31-.36,5.55-1.51,7.81"/>
      <path class="cls-11" d="m3.37,30c0-1.4-.58-2.41-.58-2.41"/>
    </g>
    <g>
      <path class="cls-11" d="m3.69,5.96c-.22-2.36-.43-3.65-.43-5.96"/>
      <path class="cls-11" d="m0,21.49c4.84,0,7.17-3.27,7.17-6.56,0-1.18-.16-1.7-.16-1.7"/>
      <path class="cls-11" d="m11.58,8.96c.81,2.41,1.52,4.71,1.52,7.07C13.1,22.21,7.71,27.6,0,27.6"/>
      <path class="cls-11" d="m9.9,0c0,1.4.18,2.11.18,2.11"/>
      <g>
        <path class="cls-11" d="m26.31,5.96c.17-2.08.29-3.65.29-5.96"/>
        <path class="cls-11" d="m30,21.53c-4.84,0-7.17-3.31-7.17-6.6,0-1.18.16-1.7.16-1.7"/>
        <path class="cls-11" d="m18.42,8.96c-.81,2.41-1.52,4.71-1.52,7.07,0,6.18,5.39,11.57,13.1,11.57"/>
        <path class="cls-11" d="m20.1.03c0,1.4-.18,2.08-.18,2.08"/>
      </g>
    </g>
  </g>
</svg>