<?xml version="1.0" encoding="UTF-8"?>
<svg xmlns="http://www.w3.org/2000/svg" xmlns:xlink="http://www.w3.org/1999/xlink" viewBox="0 0 30 30">
  <defs>
    <style>
      .cls-1 {
        fill: url(#linear-gradient);
      }

      .cls-2 {
        fill: #ffaec5;
      }

      .cls-3 {
        fill: #c5b0ff;
      }

      .cls-4 {
        fill: url(#linear-gradient-8);
      }

      .cls-5 {
        fill: url(#linear-gradient-3);
      }

      .cls-6 {
        fill: url(#linear-gradient-4);
      }

      .cls-7 {
        fill: url(#linear-gradient-2);
      }

      .cls-8 {
        fill: url(#linear-gradient-6);
      }

      .cls-9 {
        fill: url(#linear-gradient-7);
      }

      .cls-10 {
        fill: url(#linear-gradient-5);
      }

      .cls-11 {
        fill: none;
        stroke: #231f20;
        stroke-miterlimit: 10;
      }
    </style>
    <linearGradient id="linear-gradient" x1="23.24" y1="-19.19" x2="22.1" y2="-35.18" gradientTransform="translate(-14.62 -8.04) rotate(-2.72) scale(1 -1)" gradientUnits="userSpaceOnUse">
      <stop offset=".19" stop-color="#000" stop-opacity="0"/>
      <stop offset="1" stop-color="#000"/>
    </linearGradient>
    <linearGradient id="linear-gradient-2" x1="37.2" y1="-19.85" x2="36.06" y2="-35.84" gradientTransform="translate(58.46 -8.04) rotate(-177.28)" xlink:href="#linear-gradient"/>
    <linearGradient id="linear-gradient-3" x1="23.09" y1="18.48" x2="23.92" y2="21.62" gradientTransform="translate(50.2 45.04) rotate(-96.74) scale(1 -1)" gradientUnits="userSpaceOnUse">
      <stop offset="0" stop-color="#000" stop-opacity="0"/>
      <stop offset="1" stop-color="#000"/>
    </linearGradient>
    <linearGradient id="linear-gradient-4" x1="20.38" y1="-2.98" x2="21.21" y2=".16" gradientTransform="translate(1.3 45.04) rotate(-83.26)" xlink:href="#linear-gradient-3"/>
    <linearGradient id="linear-gradient-5" x1="7.14" y1="25.69" x2=".83" y2="11.54" gradientTransform="translate(10.09 -5.27) rotate(-180) scale(1 -1)" gradientUnits="userSpaceOnUse">
      <stop offset=".19" stop-color="#000" stop-opacity="0"/>
      <stop offset="1" stop-color="#000"/>
    </linearGradient>
    <linearGradient id="linear-gradient-6" x1="10.58" y1="25.34" x2="4.26" y2="11.19" gradientTransform="translate(16 -5.27)" xlink:href="#linear-gradient"/>
    <linearGradient id="linear-gradient-7" x1="22.03" y1="6.69" x2="23.17" y2="12.89" gradientTransform="translate(25.47 -15.3) rotate(100.07)" gradientUnits="userSpaceOnUse">
      <stop offset="0" stop-color="#000" stop-opacity="0"/>
      <stop offset="1" stop-color="#000"/>
    </linearGradient>
    <linearGradient id="linear-gradient-8" x1="23.16" y1="11.17" x2="24.11" y2="17.9" gradientTransform="translate(-.07 -15.3) rotate(79.93) scale(1 -1)" gradientUnits="userSpaceOnUse">
      <stop offset="0" stop-color="#000" stop-opacity="0"/>
      <stop offset="1" stop-color="#000"/>
    </linearGradient>
  </defs>
  <g id="above">
    <polygon class="cls-3" points="27.95 20.8 26.58 26.77 30 27.55 30 21.5 27.95 20.8"/>
    <polygon class="cls-3" points="20.1 23.17 22.66 16.49 22.66 14.81 25.88 7.8 27.13 0 20.1 0 19.01 7.11 17.26 12.92 17.13 18.13 18.73 22.12 20.1 23.17"/>
    <polygon class="cls-3" points="9.48 23.54 12.23 20.04 13.1 15 12 10.2 10.21 3.74 9.9 0 3.37 0 3.69 5.43 5.15 10.27 7.05 13.93 7.15 16.79 9.48 23.54"/>
    <polyline class="cls-3" points="-.01 21.53 1.98 21.21 3.17 27.23 0 27.6"/>
  </g>
  <g id="below">
    <polygon class="cls-2" points="3.26 30 2.81 24.4 .98 16.49 1.16 10.21 3.48 5.87 7.18 14.24 7.91 18.88 9.55 25.6 9.9 30 3.26 30"/>
    <polygon class="cls-2" points="10.03 2.1 11.58 9.41 15 8.5 18.42 8.93 19.87 3.25 19.87 1.77 14.17 1.44 10.03 2.1"/>
    <polygon class="cls-2" points="26.31 6.24 28.29 8.71 29.21 14.57 27.95 20.8 26.54 25.17 26.54 30.03 20.1 29.99 21.64 19.29 23.1 15.57 23.17 13.38 26.31 6.24"/>
  </g>
  <g id="gradients">
    <polygon class="cls-1" points="7.47 17.28 9.35 24.18 12.23 20.04 13.52 15.29 11.34 8.22 5.37 10.35 7.69 15.57 7.47 17.28"/>
    <polygon class="cls-7" points="22.39 17.28 20.51 24.18 17.63 20.04 16.35 15.29 18.52 8.22 24.5 10.35 22.17 15.57 22.39 17.28"/>
    <polygon class="cls-5" points="26.58 27.16 26.91 24.18 28.22 20.9 30 21.5 30 27.55 26.58 27.16"/>
    <polygon class="cls-6" points="3.29 27.34 2.96 24.35 1.65 21.07 -.13 21.68 -.13 27.73 3.29 27.34"/>
    <polygon class="cls-10" points="7.69 15.57 5.37 10.35 3.03 5.77 .82 11.59 1.58 19.99 8.84 21.69 7.61 18.13 7.69 15.57"/>
    <polygon class="cls-8" points="21.84 15.22 24.16 10 26.5 5.42 28.71 11.24 27.95 19.64 20.69 21.34 21.92 17.78 21.84 15.22"/>
    <polygon class="cls-9" points="10.05 1.77 10.92 5.81 11.48 9.14 16.03 8.5 16.82 1.32 10.05 1.77"/>
    <polygon class="cls-4" points="19.91 2.1 19.03 6.14 18.47 9.47 13.52 8.29 12.51 1.6 19.91 2.1"/>
  </g>
  <g id="outline">
    <g>
      <path class="cls-11" d="m7.18,14.24c-.46,2.53.45,3.67,1.22,5.93.99,2.91,1.32,6.17,1.51,9.83"/>
      <path class="cls-11" d="m18.42,8.93c-1.01-.28-2.16-.43-3.42-.43s-2.41.15-3.42.43"/>
      <path class="cls-11" d="m20.1,30c.07-3.66.5-6.85,1.51-9.83.77-2.26.8-2.82,1.28-4.52.29-1.01.21-1.07.29-2.27"/>
      <path class="cls-11" d="m26.2,5.62c2.29,1.85,3.01,5.64,3.01,8.71,0,2.6-.43,4.33-1.44,6.96-1.38,3.57-1.22,5.94-1.22,8.74"/>
      <path class="cls-11" d="m10.03,2.1c1.49-.43,3.14-.66,4.92-.66s3.43.23,4.92.66"/>
      <path class="cls-11" d="m3.26,30c0-2.8-.22-5.52-1.13-8.19-.9-2.67-1.45-5.49-1.45-8.08,0-3.08,1.02-5.91,3.01-8.11"/>
    </g>
    <g>
      <path class="cls-11" d="m27.71,20.8c.68.21,1.45.7,2.29.7"/>
      <path class="cls-11" d="m26.86,0c0,3.58-1.06,6.06-1.62,8.24-.6,2.31-1.74,4.26-2.39,5.91-.19.48-.48,1.74-.19,2.33"/>
      <path class="cls-11" d="m20.56,23.57c-2.31-1.85-3.66-4.48-3.66-7.57,0-2.6.85-5.11,1.76-7.78.91-2.67,1.44-5.42,1.44-8.22"/>
      <path class="cls-11" d="m30,27.55c-1.39,0-2.81-.3-3.42-.79"/>
    </g>
    <g>
      <path class="cls-11" d="m3.17,27.23c-.77.22-1.96.37-3.17.37"/>
      <path class="cls-11" d="m9.9,0c0,2.8.54,5.56,1.44,8.22.9,2.67,1.76,5.18,1.76,7.78,0,3.08-1.33,5.69-3.62,7.54"/>
      <path class="cls-11" d="m7.15,16.79c.21-.5.25-.66.25-1.07,0-1.77-1.05-3.2-2.03-5.38C3.87,7.03,3.37,3.63,3.37,0"/>
      <path class="cls-11" d="m-.01,21.53c.73,0,2-.33,2-.33"/>
    </g>
  </g>
</svg>