<?xml version="1.0" encoding="UTF-8"?>
<svg xmlns="http://www.w3.org/2000/svg" viewBox="0 0 30 30">
  <defs>
    <style>
      .cls-1 {
        fill: #ffaec5;
      }

      .cls-2 {
        fill: #c5b0ff;
      }

      .cls-3 {
        fill: none;
        stroke: #231f20;
        stroke-miterlimit: 10;
      }
    </style>
  </defs>
  <g id="above">
    <polygon class="cls-2" points="27.95 20.8 26.58 26.77 30 27.55 30.5 21.53 27.95 20.8"/>
    <polygon class="cls-2" points="20.1 23.17 22.66 16.49 22.66 14.81 25.88 7.8 27.13 0 20.1 0 19.01 7.11 17.26 12.92 17.13 18.13 18.73 22.12 20.1 23.17"/>
    <polygon class="cls-2" points="9.48 23.54 12.23 20.04 13.1 15 12 10.2 10.21 3.74 9.9 0 3.37 0 3.69 5.43 5.15 10.27 7.05 13.93 7.15 16.79 9.48 23.54"/>
    <polygon class="cls-2" points="-.01 21.53 1.98 21.21 3.17 27.23 0 27.6 -.01 21.53"/>
  </g>
  <g id="below">
    <polygon class="cls-1" points="3.26 30 2.81 24.4 .98 16.49 1.16 10.21 3.48 5.87 7.18 14.24 7.91 18.88 9.55 25.6 9.9 30 3.26 30"/>
    <polygon class="cls-1" points="10.03 2.1 11.58 9.41 15 8.5 18.42 8.93 19.87 3.25 19.87 1.77 14.17 1.44 10.03 2.1"/>
    <polygon class="cls-1" points="26.31 6.24 28.29 8.71 29.21 14.57 27.95 20.8 26.54 25.17 26.54 30.03 20.1 29.99 21.64 19.29 23.1 15.57 23.17 13.38 26.31 6.24"/>
  </g>
  <g id="outline">
    <g>
      <path class="cls-3" d="m7.18,14.24c-.46,2.53.45,3.67,1.22,5.93.99,2.91,1.32,6.17,1.51,9.83"/>
      <path class="cls-3" d="m18.42,8.93c-1.01-.28-2.16-.43-3.42-.43s-2.41.15-3.42.43"/>
      <path class="cls-3" d="m20.1,30c.07-3.66.5-6.85,1.51-9.83.77-2.26.8-2.82,1.28-4.52.29-1.01.21-1.07.29-2.27"/>
      <path class="cls-3" d="m26.2,5.62c2.29,1.85,3.01,5.64,3.01,8.71,0,2.6-.43,4.33-1.44,6.96-1.38,3.57-1.22,5.94-1.22,8.74"/>
      <path class="cls-3" d="m10.03,2.1c1.49-.43,3.14-.66,4.92-.66s3.43.23,4.92.66"/>
      <path class="cls-3" d="m3.26,30c0-2.8-.22-5.52-1.13-8.19-.9-2.67-1.45-5.49-1.45-8.08,0-3.08,1.02-5.91,3.01-8.11"/>
    </g>
    <g>
      <path class="cls-3" d="m27.71,20.8c.68.21,1.45.7,2.29.7"/>
      <path class="cls-3" d="m26.86,0c0,3.63-.22,5.59-1.21,8.49-.77,2.26-2.15,4.01-2.8,5.65-.19.48-.48,1.74-.19,2.33"/>
      <path class="cls-3" d="m20.56,23.57c-2.31-1.85-3.66-4.48-3.66-7.57,0-2.6.85-5.11,1.76-7.78.91-2.67,1.44-5.42,1.44-8.22"/>
      <path class="cls-3" d="m30,27.55c-1.39,0-2.81-.3-3.42-.79"/>
    </g>
    <g>
      <path class="cls-3" d="m3.17,27.23c-.77.22-1.96.37-3.17.37"/>
      <path class="cls-3" d="m9.9,0c0,2.8.54,5.56,1.44,8.22.9,2.67,1.76,5.18,1.76,7.78,0,3.08-1.33,5.69-3.62,7.54"/>
      <path class="cls-3" d="m7.15,16.79c.21-.5.25-.66.25-1.07,0-1.77-1.05-3.2-2.03-5.38C3.87,7.03,3.37,3.63,3.37,0"/>
      <path class="cls-3" d="m-.01,21.53c.73,0,2-.33,2-.33"/>
    </g>
  </g>
</svg>