<?xml version="1.0" encoding="UTF-8"?>
<svg xmlns="http://www.w3.org/2000/svg" viewBox="0 0 30 30">
  <defs>
    <style>
      .cls-1 {
        fill: #c5b0ff;
      }

      .cls-2 {
        fill: none;
        stroke: #231f20;
        stroke-miterlimit: 10;
      }
    </style>
  </defs>
  <g id="above">
    <polygon class="cls-1" points="3.37 0 9.9 0 10.71 6.1 12.93 13.95 13.1 18.5 9.9 23.92 5.1 26.21 0 26.35 0 19.7 4.43 19.13 7.05 17.38 7.4 14.02 5.18 9.92 3.37 4.81 3.37 0"/>
    <polygon class="cls-1" points="26.63 .01 20.1 .01 19.29 6.11 17.07 13.96 16.9 18.52 20.1 23.93 24.9 26.22 30 26.36 30 19.72 25.57 19.14 22.95 17.39 22.6 14.04 24.82 9.94 26.63 4.82 26.63 .01"/>
    <g>
      <path class="cls-2" d="m20.1.01c0,2.8-.54,5.56-1.44,8.22-.9,2.67-1.76,5.18-1.76,7.78,0,3.08.76,5.73,3.22,7.94,1.37,1.16,3.13,2.86,9.88,2.79"/>
      <path class="cls-2" d="m26.86,0c0,3.63-.73,7.05-2.23,10.36-.98,2.18-2.03,3.61-2.03,5.38,0,.41.04.57.25,1.07,0,0,.95,3.05,7.15,3.05"/>
    </g>
  </g>
  <g id="Layer_5" data-name="Layer 5">
    <g>
      <path class="cls-2" d="m9.9,0c0,2.8.54,5.56,1.44,8.22.9,2.67,1.76,5.18,1.76,7.78,0,3.08-.76,5.73-3.22,7.94-1.37,1.16-3.06,2.86-9.89,2.79"/>
      <path class="cls-2" d="m3.37,0c0,3.63.49,7.03,1.99,10.35.98,2.18,2.03,3.61,2.03,5.38,0,.41-.04.57-.25,1.07,0,0-.95,3.05-7.15,3.05"/>
    </g>
  </g>
</svg>