<?xml version="1.0" encoding="UTF-8"?>
<svg xmlns="http://www.w3.org/2000/svg" xmlns:xlink="http://www.w3.org/1999/xlink" viewBox="0 0 30 30">
  <defs>
    <style>
      .cls-1 {
        fill: url(#linear-gradient);
      }

      .cls-2 {
        fill: #ffaec5;
      }

      .cls-3 {
        fill: #c5b0ff;
      }

      .cls-4 {
        fill: url(#linear-gradient-8);
      }

      .cls-5 {
        fill: url(#linear-gradient-3);
      }

      .cls-6 {
        fill: url(#linear-gradient-4);
      }

      .cls-7 {
        fill: url(#linear-gradient-2);
      }

      .cls-8 {
        fill: url(#linear-gradient-6);
      }

      .cls-9 {
        fill: url(#linear-gradient-7);
      }

      .cls-10 {
        fill: url(#linear-gradient-5);
      }

      .cls-11 {
        fill: none;
        stroke: #231f20;
        stroke-miterlimit: 10;
      }
    </style>
    <linearGradient id="linear-gradient" x1="9.19" y1="19.8" x2="8.34" y2="7.78" gradientUnits="userSpaceOnUse">
      <stop offset="0" stop-color="#000" stop-opacity="0"/>
      <stop offset="1" stop-color="#000"/>
    </linearGradient>
    <linearGradient id="linear-gradient-2" x1="41.66" y1="19.55" x2="40.8" y2="7.53" gradientTransform="translate(62.33) rotate(-180) scale(1 -1)" xlink:href="#linear-gradient"/>
    <linearGradient id="linear-gradient-3" x1="27.28" y1="1.23" x2="28.55" y2="6.03" gradientTransform="translate(50.91) rotate(-180) scale(1 -1)" gradientUnits="userSpaceOnUse">
      <stop offset="0" stop-color="#000" stop-opacity="0"/>
      <stop offset="1" stop-color="#000"/>
    </linearGradient>
    <linearGradient id="linear-gradient-4" x1="6.42" y1="1.05" x2="7.72" y2="5.93" gradientTransform="matrix(1,0,0,1,0,0)" xlink:href="#linear-gradient-3"/>
    <linearGradient id="linear-gradient-5" x1="33.95" y1="45.66" x2="38.71" y2="32.63" gradientTransform="translate(-8.64 54.2) rotate(-2.42) scale(1 -1)" gradientUnits="userSpaceOnUse">
      <stop offset="0" stop-color="#000" stop-opacity="0"/>
      <stop offset="1" stop-color="#000" stop-opacity=".9"/>
    </linearGradient>
    <linearGradient id="linear-gradient-6" x1="56.74" y1="44.39" x2="60.06" y2="29.34" gradientTransform="translate(61.18 54.2) rotate(-177.58)" gradientUnits="userSpaceOnUse">
      <stop offset="0" stop-color="#000" stop-opacity="0"/>
      <stop offset=".94" stop-color="#000" stop-opacity=".9"/>
    </linearGradient>
    <linearGradient id="linear-gradient-7" x1="4.26" y1="48.8" x2="5.55" y2="53.69" gradientTransform="translate(23.56 77.41) rotate(-5.12) scale(1 -1)" xlink:href="#linear-gradient-3"/>
    <linearGradient id="linear-gradient-8" x1="30.37" y1="46.42" x2="31.56" y2="50.92" gradientTransform="translate(32.54 77.41) rotate(-174.88)" gradientUnits="userSpaceOnUse">
      <stop offset="0" stop-color="#000" stop-opacity="0"/>
      <stop offset="1" stop-color="#000"/>
    </linearGradient>
  </defs>
  <g id="above">
    <polygon class="cls-3" points="20.08 -.03 26.52 0 26.18 5.03 19.9 2.05 20.08 -.03"/>
    <polygon class="cls-3" points="18.04 8.96 21.18 10.28 22.92 13.6 23.23 17.24 26.2 20.67 30 21.53 30 27.6 24.22 26.71 18.73 22 16.9 16.03 18.04 8.96"/>
    <polygon class="cls-3" points="3.26 0 9.9 0 9.99 1.6 3.69 5.09 3.26 0"/>
    <polygon class="cls-3" points="6.55 13.62 7.94 10.46 11.58 8.96 13.1 16.03 12.1 20.54 8.88 24.61 4.84 26.82 0 27.6 0 21.49 4.07 20.56 7.17 17.36 6.55 13.62"/>
  </g>
  <g id="below">
    <polyline class="cls-2" points="3.05 30 2.84 27.95 9.16 24.82 9.63 30 3.14 30"/>
    <polyline class="cls-2" points="20.72 24.66 20.1 30.02 26.86 30 26.86 26.94"/>
    <polygon class="cls-2" points="22.89 15.64 25.28 20.08 27.71 20.99 29.21 13.18 27.71 7.58 23.45 3.5 17.46 1.59 11.29 1.59 6.35 3.55 1.83 8.07 .68 15 1.53 20.99 5.07 19.99 7.4 15.33 7.4 11.95 11.29 9.04 15.24 8.52 19.61 8.96 22.83 12.12 22.66 15 22.89 15.64"/>
  </g>
  <g id="gradients">
    <polygon class="cls-1" points="6.9 14.02 8.24 11.21 11.58 8.96 13.03 15.72 11.87 20.99 5.07 19.99 7.2 15.72 6.9 14.02"/>
    <polygon class="cls-7" points="23.01 13.78 21.67 10.97 18.33 8.72 16.87 15.48 18.04 20.75 24.75 19.63 22.7 15.48 23.01 13.78"/>
    <polygon class="cls-5" points="26.45 5.49 23.24 3.12 20.06 1.98 19.98 .06 26.99 .03 26.45 5.49"/>
    <polygon class="cls-6" points="3.65 5.35 6.85 2.98 10.03 1.85 9.98 -.29 3.22 -.23 3.65 5.35"/>
    <polygon class="cls-10" points="23.23 17.24 24.75 19.63 28.18 21.74 29.35 14.92 28.48 8.72 23.77 3.52 19.61 8.96 21.67 10.97 23.23 14.5 23.23 17.24"/>
    <polygon class="cls-8" points="6.87 16.88 5.42 19.63 1.99 21.74 .68 13.18 2.19 7.58 6.85 2.98 10.08 9.17 7.57 11.29 6.64 15.17 6.87 16.88"/>
    <polygon class="cls-9" points="20.44 24.41 23.84 26.48 27.11 27.33 26.88 29.98 20.51 30.01 20.44 24.41"/>
    <polygon class="cls-4" points="9.39 24.73 5.98 26.81 2.71 27.65 3.08 29.82 9.63 29.84 9.39 24.73"/>
  </g>
  <g id="outline">
    <g>
      <path class="cls-11" d="m9.11,24.61c.37,2.27.79,4.62.79,5.39"/>
      <path class="cls-11" d="m22.89,15.64s.21-.44.21-1.62c0-3.29-3.25-5.5-8.1-5.5s-8.1,2.21-8.1,5.5c0,1.18.14,1.43.22,1.7"/>
      <path class="cls-11" d="m20.1,30.02c0-2.3.11-3.73.34-5.8"/>
      <path class="cls-11" d="m26.86,27.66c0,.66,0,.94,0,2.34"/>
      <path class="cls-11" d="m1.53,20.99c-.66-2.76-.84-5.16-.84-7.81C.68,6.27,6.55,1.44,14.95,1.44s14.26,4.83,14.26,11.75c0,1.31-.36,5.55-1.51,7.81"/>
      <path class="cls-11" d="m3.37,30c0-1.4-.58-2.41-.58-2.41"/>
    </g>
    <g>
      <path class="cls-11" d="m3.67,5.76C3.46,3.4,3.38,2.31,3.38,0"/>
      <path class="cls-11" d="m0,21.49c4.84,0,7.17-3.27,7.17-6.56,0-1.18-.16-1.7-.16-1.7"/>
      <path class="cls-11" d="m11.58,8.96c.81,2.41,1.52,4.71,1.52,7.07C13.1,22.21,7.71,27.6,0,27.6"/>
      <path class="cls-11" d="m9.9,0c0,1.4.18,2.11.18,2.11"/>
      <g>
        <path class="cls-11" d="m26.31,5.96c.17-2.08.55-3.65.55-5.96"/>
        <path class="cls-11" d="m30,21.53c-4.84,0-7.17-3.31-7.17-6.6,0-1.18.16-1.7.16-1.7"/>
        <path class="cls-11" d="m18.42,8.96c-.81,2.41-1.52,4.71-1.52,7.07,0,6.18,5.39,11.57,13.1,11.57"/>
        <path class="cls-11" d="m20.1,0c0,1.4-.18,2.11-.18,2.11"/>
      </g>
    </g>
  </g>
</svg>