<?xml version="1.0" encoding="UTF-8"?>
<svg xmlns="http://www.w3.org/2000/svg" viewBox="0 0 30 30">
  <defs>
    <style>
      .cls-1 {
        fill: #737393;
      }

      .cls-2 {
        fill: #96747e;
      }

      .cls-3 {
        fill: none;
        stroke: #231f20;
        stroke-miterlimit: 10;
      }
    </style>
  </defs>
  <g id="above">
    <polygon class="cls-2" points="3.42 21.07 1.9 16.77 2.09 12.05 4.61 7.29 9.39 4.56 15.23 3.3 22.51 4.9 26.82 9.16 28.1 14.47 26.67 20.82 23.47 19.46 22.41 17.71 23.08 13.53 21.9 10.91 17.97 8.87 13.7 8.62 9.97 9.53 7.23 12.29 6.9 16.45 7.66 17.95 5.73 20.34 3.42 21.07"/>
    <polygon class="cls-2" points="4.32 26.18 8.88 24.17 9.9 30.43 5.18 30.43 4.43 26.5 4.32 26.18"/>
    <polygon class="cls-2" points="20.93 24.17 25.68 26.36 25.1 30.84 20.1 30.43 20.93 24.17"/>
  </g>
  <g id="below">
    <polygon class="cls-1" points="4.9 0 9.9 0 10.08 4.04 5.35 6.6 4.9 0"/>
    <polygon class="cls-1" points="7.3 12.69 8.1 16 6.9 19.23 2.93 21.19 0 21.5 0 26.5 6.55 25.49 10.87 22.19 13.1 17.6 12.65 12.51 11.58 8.93 8.64 10.38 7.3 12.69"/>
    <polygon class="cls-1" points="18.34 9.16 20.65 9.88 22.95 12.29 21.9 16.31 23.6 19.58 27.95 21.07 30 21.5 30 26.67 24.78 25.75 21.18 24.03 17.14 19.02 16.94 15 18.34 9.16"/>
    <polygon class="cls-1" points="20.1 0 25.1 0 24.52 6.29 19.92 4.16 20.1 0"/>
  </g>
  <g id="outline">
    <g>
      <path class="cls-3" d="m8.88,23.74c.58,2.01,1.02,3.97,1.02,6.26"/>
      <path class="cls-3" d="m22.33,17.96c.44-1.44.77-2.78.77-3.96,0-3.29-3.25-5.5-8.1-5.5s-8.1,2.21-8.1,5.5c0,1.18.32,2.52.76,3.95"/>
      <path class="cls-3" d="m20.1,30c0-2.3.23-4.2.83-6.27"/>
      <path class="cls-3" d="m25.68,26.04c-.35,1.37-.58,2.56-.58,3.96"/>
      <path class="cls-3" d="m3.42,21.07c-.81-2.41-1.52-4.71-1.52-7.07C1.9,7.82,7.29,3.5,15,3.5s13.1,4.32,13.1,10.5c0,2.37-.71,4.67-1.52,7.07"/>
      <path class="cls-3" d="m4.9,30c0-1.4-.23-2.59-.58-3.96"/>
    </g>
    <g>
      <path class="cls-3" d="m19.92,4.16c.35-1.37.18-2.76.18-4.16"/>
      <path class="cls-3" d="m30,26.5c-7.71,0-13.1-4.32-13.1-10.5,0-2.37.71-4.67,1.52-7.07"/>
      <path class="cls-3" d="m22.66,12.05c-.44,1.43-.76,2.77-.76,3.95,0,3.29,3.25,5.5,8.1,5.5"/>
      <path class="cls-3" d="m25.1,0c0,2.31-.05,4.48-.64,6.51"/>
    </g>
    <g>
      <path class="cls-3" d="m5.54,6.51c-.58-2.03-.64-4.2-.64-6.51"/>
      <path class="cls-3" d="m0,21.5c4.84,0,8.1-2.21,8.1-5.5,0-1.18-.32-2.52-.76-3.95"/>
      <path class="cls-3" d="m11.58,8.93c.81,2.41,1.52,4.71,1.52,7.07,0,6.18-5.39,10.5-13.1,10.5"/>
      <path class="cls-3" d="m9.9,0c0,1.4-.17,2.79.18,4.16"/>
    </g>
  </g>
</svg>